<?xml version="1.0" encoding="UTF-8" standalone="no" ?>
<!DOCTYPE svg PUBLIC "-//W3C//DTD SVG 1.1//EN" "http://www.w3.org/Graphics/SVG/1.1/DTD/svg11.dtd">
<svg xmlns="http://www.w3.org/2000/svg" xmlns:xlink="http://www.w3.org/1999/xlink" version="1.1" width="480" height="480" viewBox="0 0 480 480" xml:space="preserve">
<desc>Created with Fabric.js 3.6.6</desc>
<defs>
</defs>
<g transform="matrix(3.22 0 0 3.22 -704.12 239.12)"  >
<g style=""   >
		<g transform="matrix(0.13 0 0 -0.13 -198.62 42.04)" id="path14"  >
<path style="stroke: none; stroke-width: 1; stroke-dasharray: none; stroke-linecap: butt; stroke-dashoffset: 0; stroke-linejoin: miter; stroke-miterlimit: 4; fill: rgb(37,74,165); fill-rule: evenodd; opacity: 1;"  transform=" translate(-1265.82, -241.29)" d="m 1083.36 105.68 v 271.566 h -44.97 v 95 h 200.98 v -95 h -41.86 v -83.652 h 136.63 v 83.652 h -42.89 v 95 h 202.01 v -95 H 1447.6 V 105.68 h 45.66 V 10.3281 H 1291.25 V 105.68 h 42.89 v 92.933 H 1197.51 V 105.68 h 42.54 V 10.3281 H 1038.39 V 105.68 h 44.97" stroke-linecap="round" />
</g>
		<g transform="matrix(0.13 0 0 -0.13 -149.27 42.04)" id="path16"  >
<path style="stroke: none; stroke-width: 1; stroke-dasharray: none; stroke-linecap: butt; stroke-dashoffset: 0; stroke-linejoin: miter; stroke-miterlimit: 4; fill: rgb(37,74,165); fill-rule: evenodd; opacity: 1;"  transform=" translate(-1635.94, -241.29)" d="m 1585.26 104.289 v 169.012 h -43.58 v 93.281 h 144.58 V 104.289 h 45.32 V 10.3281 H 1540.3 v 93.9609 z m 0 282.254 v 85.703 h 101 v -85.703 h -101" stroke-linecap="round" />
</g>
		<g transform="matrix(0.13 0 0 -0.13 -116.8 42.04)" id="path18"  >
<path style="stroke: none; stroke-width: 1; stroke-dasharray: none; stroke-linecap: butt; stroke-dashoffset: 0; stroke-linejoin: miter; stroke-miterlimit: 4; fill: rgb(37,74,165); fill-rule: evenodd; opacity: 1;"  transform=" translate(-1879.45, -241.29)" d="m 1828.77 104.289 v 274.324 h -43.92 v 93.633 h 144.93 V 104.289 h 45.31 V 10.3281 h -191.28 v 93.9609 h 44.96" stroke-linecap="round" />
</g>
		<g transform="matrix(0.13 0 0 -0.13 -85.32 41.44)" id="path20"  >
<path style="stroke: none; stroke-width: 1; stroke-dasharray: none; stroke-linecap: butt; stroke-dashoffset: 0; stroke-linejoin: miter; stroke-miterlimit: 4; fill: rgb(37,74,165); fill-rule: evenodd; opacity: 1;"  transform=" translate(-2115.53, -245.76)" d="m 2057.76 273.301 h -45.66 v 93.281 h 45.66 v 7.91 l 0.35 7.227 l 0.69 7.226 l 1.04 6.543 l 1.04 6.543 l 1.38 6.192 l 1.38 6.191 l 2.08 5.508 l 2.08 5.508 l 2.42 4.824 l 2.42 4.812 l 2.76 4.817 l 3.12 4.129 l 3.46 3.789 l 3.45 3.781 l 3.81 3.445 l 4.15 3.098 l 4.5 3.105 l 4.84 2.754 l 5.19 2.403 l 5.53 2.41 l 5.89 2.062 l 6.22 2.071 l 6.57 1.718 l 6.92 1.719 l 7.26 1.387 l 7.61 1.023 l 7.96 0.696 l 8.3 1.035 l 8.65 0.332 l 8.99 0.351 h 9.34 h 21.8 v -81.914 h -0.36 h -0.34 h -0.34 h -0.35 h -0.35 l -3.8 0.332 l -3.46 0.352 l -2.77 0.352 h -2.77 l -2.76 0.332 h -2.08 h -1.73 h -1.72 h -4.85 l -4.84 -0.332 l -4.15 -0.704 l -3.81 -0.683 l -3.46 -1.035 l -3.11 -1.036 l -2.42 -1.718 l -2.42 -1.719 l -2.08 -1.719 l -1.38 -2.402 l -1.73 -2.422 l -1.04 -3.086 l -1.04 -3.457 l -0.34 -3.437 l -0.35 -3.79 l -0.34 -4.472 v -2.051 h 50.5 v -93.281 h -50.5 V 104.289 h 49.81 V 10.3281 H 2012.1 v 93.9609 h 45.66 v 169.012" stroke-linecap="round" />
</g>
		<g transform="matrix(0.13 0 0 -0.13 -48.7 49.08)" id="path22"  >
<path style="stroke: none; stroke-width: 1; stroke-dasharray: none; stroke-linecap: butt; stroke-dashoffset: 0; stroke-linejoin: miter; stroke-miterlimit: 4; fill: rgb(37,74,165); fill-rule: evenodd; opacity: 1;"  transform=" translate(-2390.18, -188.45)" d="m 2246.28 119.785 h 96.85 l 0.35 -4.472 l 0.69 -4.485 l 0.69 -3.777 l 1.39 -3.789 l 1.72 -3.4417 l 1.74 -3.4414 l 2.07 -2.75 l 2.42 -2.7578 l 2.77 -2.4219 l 3.11 -2.0508 l 3.11 -1.3867 l 3.81 -1.7109 l 3.8 -1.0391 l 4.16 -0.6836 l 4.49 -0.3476 l 4.5 -0.3399 l 4.5 0.3399 l 4.49 0.3476 l 3.8 0.3516 l 3.47 1.0117 l 3.45 1.0391 l 3.12 1.3906 l 2.76 1.7187 l 2.77 2.0704 l 2.08 2.0507 l 2.07 2.418 l 1.73 2.4024 l 1.39 2.75 l 1.03 3.1097 l 0.69 3.089 l 0.7 3.782 v 3.437 l -0.35 2.762 l -0.35 2.754 l -1.03 2.422 l -1.38 2.402 l -1.74 2.402 l -2.07 2.422 l -2.42 2.051 l -2.77 2.07 l -3.11 2.071 l -3.46 2.07 l -4.15 1.719 l -4.15 2.07 l -4.85 1.367 l -4.84 1.719 l -5.53 1.719 l -5.88 1.386 l -4.5 1.036 l -4.5 1.035 l -4.14 1.015 l -3.81 1.036 l -3.46 1.035 l -3.46 0.683 l -2.76 1.035 l -3.12 0.684 l -12.11 3.789 l -11.41 4.141 l -5.54 2.402 l -5.18 2.07 l -4.85 2.403 l -4.84 2.754 l -4.5 2.422 l -4.49 2.753 l -4.16 2.754 l -3.8 3.086 l -3.8 3.106 l -3.46 3.086 l -3.11 3.105 l -3.12 3.106 l -3.11 3.437 l -2.77 3.789 l -2.42 3.438 l -2.42 3.789 l -2.08 4.121 l -2.07 3.789 l -1.73 4.141 l -1.38 4.472 l -1.39 4.473 l -1.38 4.473 l -1.04 4.472 l -0.69 4.824 l -0.69 4.805 l -0.35 5.176 l -0.35 5.156 l -0.34 5.156 l 0.34 6.211 l 0.35 6.192 l 0.69 5.84 l 1.04 5.859 l 1.04 5.508 l 1.38 5.508 l 1.73 5.156 l 2.08 5.176 l 2.42 5.156 l 2.42 4.824 l 2.76 4.805 l 3.12 4.472 l 3.11 4.473 l 3.81 4.141 l 3.8 4.121 l 4.15 3.789 l 4.15 3.789 l 4.84 3.437 l 4.5 3.457 l 4.84 3.086 l 5.19 2.754 l 5.19 2.422 l 5.19 2.402 l 5.53 2.071 l 5.88 1.719 l 5.89 1.718 l 5.88 1.035 l 6.22 1.368 l 6.23 0.683 l 6.57 0.703 l 6.92 0.332 h 6.92 h 5.53 l 5.19 -0.332 l 5.18 -0.351 l 5.19 -0.684 l 4.85 -0.683 l 4.84 -1.036 l 4.49 -1.035 l 4.5 -1.386 l 4.5 -1.368 l 4.5 -1.718 l 4.15 -1.719 l 4.15 -2.07 l 4.15 -2.403 l 4.15 -2.422 l 4.15 -2.754 l 4.15 -2.753 v 14.804 h 74.37 V 266.758 h -94.43 l -1.04 4.121 l -0.69 4.141 l -1.38 3.437 l -1.04 3.438 l -1.38 2.753 l -1.74 2.754 l -1.38 2.422 l -2.07 2.051 l -2.08 1.719 l -2.07 1.386 l -2.43 1.387 l -2.76 1.016 l -3.11 0.703 l -3.12 0.684 l -3.46 0.332 h -3.46 h -3.8 l -3.46 -0.332 l -3.46 -0.684 l -3.11 -0.703 l -3.11 -1.016 l -2.77 -1.387 l -2.77 -1.386 l -2.42 -1.719 l -2.08 -2.051 l -1.73 -2.07 l -1.72 -2.07 l -1.39 -2.403 l -1.04 -2.422 l -0.69 -2.754 l -0.34 -2.734 l -0.35 -2.754 l 0.35 -3.789 l 0.34 -3.457 l 1.04 -3.086 l 1.04 -3.105 l 1.38 -2.754 l 1.73 -2.403 l 2.42 -2.402 l 2.43 -2.07 l 3.11 -2.422 l 3.8 -2.051 l 5.19 -2.07 l 5.88 -2.403 l 6.92 -2.421 l 7.61 -2.403 l 8.65 -2.402 l 9.68 -2.422 l 16.26 -4.473 l 14.53 -4.472 l 6.92 -2.403 l 6.56 -2.754 l 6.23 -2.421 l 5.88 -2.754 l 5.54 -2.403 l 5.53 -2.754 l 4.85 -2.753 l 4.49 -3.106 l 4.5 -2.754 l 3.8 -3.086 l 3.81 -3.105 l 3.11 -3.086 l 3.11 -3.106 l 2.77 -3.437 l 2.77 -3.438 l 2.42 -3.789 l 2.42 -3.789 l 2.07 -4.14 l 1.74 -4.121 l 1.73 -4.141 l 1.38 -4.473 l 1.38 -4.804 l 1.04 -4.825 l 1.03 -4.824 l 0.7 -5.156 l 0.34 -5.508 l 0.35 -5.508 v -5.508 v -6.546 l -0.69 -6.192 l -0.7 -6.1874 l -1.03 -5.8593 l -1.04 -5.8399 l -1.73 -5.5117 l -1.72 -5.5078 l -2.08 -5.5117 l -2.42 -5.1719 l -2.77 -5.1563 l -3.12 -4.8203 l -3.1 -4.8125 l -3.81 -4.4883 l -3.81 -4.4726 l -4.15 -4.4766 l -4.15 -4.1211 l -4.84 -3.789 l -4.84 -3.7813 l -4.85 -3.4414 l -5.19 -3.1094 l -5.18 -2.75 l -5.54 -2.7578 l -5.88 -2.4023 l -5.53 -2.07034 l -6.23 -2.07031 l -5.88 -1.71875 l -6.57 -1.35937 l -6.57 -1.03907 l -6.57 -1.03125 l -6.92 -0.35937 l -6.92 -0.67969 h -7.27 h -5.53 l -5.88 0.34766 l -5.54 0.6914 l -5.18 0.67969 l -5.54 1.03125 l -5.19 1.03906 l -4.84 1.39063 l -4.84 1.71094 l -4.84 1.71875 l -4.85 2.07027 l -4.5 2.0508 l -4.49 2.4297 l -4.5 2.75 l -4.5 2.75 l -4.49 3.0899 l -4.15 3.4375 V 10.3281 h -78.52 V 119.785" stroke-linecap="round" />
</g>
		<g transform="matrix(0.13 0 0 -0.13 10.28 49.08)" id="path24"  >
<path style="stroke: none; stroke-width: 1; stroke-dasharray: none; stroke-linecap: butt; stroke-dashoffset: 0; stroke-linejoin: miter; stroke-miterlimit: 4; fill: rgb(37,74,165); fill-rule: evenodd; opacity: 1;"  transform=" translate(-2832.58, -188.46)" d="m 2773.09 10.3281 h -100.66 l -84.06 262.9729 h -31.13 v 93.281 h 159.81 v -93.281 h -28.71 l 38.39 -139.746 l 62.27 233.027 h 87.16 l 62.26 -233.027 l 38.74 139.746 h -28.71 v 93.281 h 159.47 v -93.281 h -31.14 L 2992.73 10.3281 h -100.65 l -59.5 205.1409 l -59.49 -205.1409" stroke-linecap="round" />
</g>
		<g transform="matrix(0.13 0 0 -0.13 73.65 48.99)" id="path26"  >
<path style="stroke: none; stroke-width: 1; stroke-dasharray: none; stroke-linecap: butt; stroke-dashoffset: 0; stroke-linejoin: miter; stroke-miterlimit: 4; fill: rgb(37,74,165); fill-rule: evenodd; opacity: 1;"  transform=" translate(-3307.84, -189.14)" d="m 3228.98 224.766 h 159.46 l -2.08 6.875 l -2.42 6.894 l -3.1 6.192 l -3.12 5.859 l -3.8 5.156 l -4.16 5.156 l -4.49 4.473 l -5.2 4.141 l -5.18 3.437 l -5.88 3.106 l -5.88 2.754 l -6.23 2.05 l -6.57 1.739 l -7.26 1.367 l -7.26 0.683 l -7.61 0.352 l -6.93 -0.352 l -6.92 -0.683 l -6.56 -1.367 l -6.23 -1.739 l -6.22 -2.05 l -5.88 -2.754 l -5.54 -3.106 l -5.19 -3.789 l -5.19 -4.121 l -4.84 -4.824 l -4.15 -4.824 l -3.81 -5.157 l -3.46 -5.859 l -3.1 -6.191 l -2.78 -6.543 z m 256.31 -108.418 l -3.11 -6.899 l -3.11 -6.527 l -3.46 -6.2111 l -3.81 -6.1914 l -3.81 -5.8398 l -3.8 -5.8594 l -4.15 -5.5 l -4.15 -5.1601 l -4.49 -5.1797 l -4.85 -5.1524 l -4.84 -4.8281 l -4.84 -4.4687 l -5.19 -4.4727 l -5.53 -4.4688 l -5.54 -3.789 l -5.88 -4.1289 l -5.88 -3.4531 l -5.88 -3.4375 l -6.23 -3.0899 l -5.88 -3.1016 l -6.57 -2.7617 l -6.23 -2.3984 l -6.57 -2.0703 l -6.56 -2.07034 l -6.93 -1.71875 l -6.57 -1.71875 l -6.91 -1.38281 l -7.27 -1.01953 l -6.92 -0.69922 l -7.26 -0.67969 l -7.26 -0.35937 h -7.61 l -10.38 0.35937 l -10.03 0.35157 l -9.69 1.02734 l -9.34 1.72266 l -9.34 1.71875 l -9 2.39843 l -8.99 2.76174 l -8.29 3.0976 l -8.31 3.4414 l -8.3 3.7891 l -7.96 4.4727 l -7.61 4.8203 l -7.61 5.5078 l -7.26 5.5117 l -7.27 6.1875 l -6.91 6.8828 l -6.57 6.5391 l -6.23 7.2305 l -5.88 6.8906 l -5.19 7.5586 l -4.84 7.5781 l -4.49 7.9102 l -4.15 8.2612 l -3.81 8.266 l -3.12 8.262 l -2.76 8.945 l -2.42 8.613 l -2.08 8.946 l -1.38 9.297 l -1.05 9.629 l -0.68 9.296 l -0.35 9.981 l 0.35 9.648 l 0.68 9.278 l 1.05 9.648 l 1.38 8.945 l 2.08 8.946 l 2.42 8.945 l 2.76 8.965 l 3.46 8.262 l 3.81 8.593 l 3.81 7.91 l 4.84 7.93 l 4.83 7.91 l 5.2 7.227 l 5.53 7.226 l 6.23 6.895 l 6.57 6.875 l 6.91 6.191 l 6.93 6.211 l 7.6 5.508 l 7.61 5.156 l 7.96 4.825 l 8.3 4.472 l 8.3 4.121 l 8.66 3.789 l 8.98 3.438 l 8.99 2.754 l 9 2.422 l 9.33 2.05 l 9 1.387 l 9.68 1.367 l 9.35 0.352 l 9.69 0.352 l 12.1 -0.352 l 12.11 -1.035 l 5.88 -0.684 l 5.87 -1.035 l 5.89 -1.035 l 5.53 -1.367 l 5.88 -1.387 l 5.54 -1.719 l 5.52 -1.719 l 5.54 -2.07 l 5.54 -2.07 l 5.19 -2.402 l 5.53 -2.403 l 5.19 -2.422 l 5.19 -3.086 l 5.19 -2.754 l 4.84 -3.105 l 4.85 -3.086 l 4.84 -3.457 l 4.49 -3.437 l 4.5 -3.79 l 4.5 -3.789 l 4.15 -3.769 l 4.15 -4.141 l 4.15 -4.121 l 3.8 -4.14 l 3.8 -4.473 l 3.46 -4.473 l 3.47 -4.824 l 3.45 -4.824 l 3.81 -5.84 l 3.46 -5.859 l 3.12 -5.84 l 3.1 -5.86 l 2.77 -6.191 l 2.43 -6.191 l 2.42 -6.543 l 2.07 -6.192 l 1.74 -6.543 l 1.37 -6.894 l 1.39 -6.875 l 1.04 -6.875 l 0.68 -6.895 l 0.7 -7.226 l 0.34 -7.579 v -7.226 v -2.402 v -2.071 v -2.402 v -2.422 l -0.34 -2.402 v -2.403 v -2.422 l -0.35 -2.402 l -0.35 -2.402 v -2.754 l -0.34 -2.422 l -0.34 -2.754 l -0.35 -2.754 l -0.35 -2.754 l -0.34 -2.754 l -0.35 -2.754 H 3231.4 l 1.74 -5.839 l 2.41 -5.508 l 2.77 -5.176 l 3.11 -5.156 l 3.81 -4.473 l 4.15 -4.473 l 4.5 -4.14 l 4.84 -3.778 l 5.53 -3.097 l 5.54 -3.11 l 5.88 -2.402 l 6.23 -2.0702 l 6.22 -1.7188 l 6.57 -1.0391 l 6.57 -0.6796 h 6.93 h 3.8 h 3.81 l 3.8 0.6796 l 3.46 0.3594 l 3.46 0.6797 l 3.46 1.0313 l 3.45 1.039 l 3.12 1.0317 l 3.45 1.367 l 3.12 1.39 l 3.12 1.719 l 3.11 1.723 l 3.11 2.07 l 3.11 2.051 l 3.12 2.422 l 3.11 2.754 h 123.48" stroke-linecap="round" />
</g>
		<g transform="matrix(0.13 0 0 -0.13 116.78 48.69)" id="path28"  >
<path style="stroke: none; stroke-width: 1; stroke-dasharray: none; stroke-linecap: butt; stroke-dashoffset: 0; stroke-linejoin: miter; stroke-miterlimit: 4; fill: rgb(37,74,165); fill-rule: evenodd; opacity: 1;"  transform=" translate(-3631.26, -191.38)" d="m 3557.58 104.289 v 169.012 h -40.81 v 93.281 h 136.98 v -51.641 l 3.8 7.227 l 4.15 6.191 l 4.15 6.211 l 4.5 5.508 l 5.19 4.805 l 4.85 4.824 l 5.52 4.121 l 5.88 3.789 l 5.88 3.106 l 6.23 3.105 l 6.93 2.402 l 6.91 2.071 l 7.61 1.719 l 7.96 1.035 l 8.3 1.035 l 8.65 0.332 v -98.789 l -5.89 -0.332 l -5.88 -0.684 l -5.54 -0.703 l -5.53 -1.035 l -5.19 -1.016 l -4.83 -1.035 l -4.86 -1.387 l -4.49 -1.367 l -4.15 -1.719 l -4.15 -1.718 l -3.8 -2.071 l -3.81 -2.07 l -3.46 -2.402 l -3.11 -2.422 l -3.11 -2.402 l -2.78 -2.754 l -2.76 -3.106 l -2.42 -3.086 l -2.07 -3.105 l -2.08 -3.789 l -2.07 -3.789 l -1.73 -3.77 l -1.74 -4.141 l -1.38 -4.472 l -1.03 -4.824 l -1.39 -4.805 l -0.69 -4.824 l -0.7 -5.157 l -0.69 -5.507 l -0.34 -5.86 l -0.34 -5.859 v -5.84 v -72.293 h 41.16 V 10.3281 h -187.14 v 93.9609 h 45.31" stroke-linecap="round" />
</g>
		<g transform="matrix(0.13 0 0 -0.13 161.63 42.04)" id="path30"  >
<path style="stroke: none; stroke-width: 1; stroke-dasharray: none; stroke-linecap: butt; stroke-dashoffset: 0; stroke-linejoin: miter; stroke-miterlimit: 4; fill: rgb(37,74,165); fill-rule: evenodd; opacity: 1;"  transform=" translate(-3967.65, -241.29)" d="m 3826.69 104.289 v 274.324 h -43.57 v 93.633 h 143.89 v -269.16 l 74.02 76.055 h -40.47 v 87.441 h 182.64 v -93.281 h -38.74 l -72.99 -76.406 l 71.94 -92.606 h 50.85 V 10.3281 h -101 L 3927.01 170.039 V 10.3281 h -145.97 v 93.9609 h 45.65" stroke-linecap="round" />
</g>
		<g transform="matrix(0.13 0 0 -0.13 -342.88 -43.42)" id="path32"  >
<path style="stroke: none; stroke-width: 1; stroke-dasharray: none; stroke-linecap: butt; stroke-dashoffset: 0; stroke-linejoin: miter; stroke-miterlimit: 4; fill: rgb(37,74,165); fill-rule: evenodd; opacity: 1;"  transform=" translate(-183.85, -882.17)" d="m 240.746 746.902 h 43.238 V 651.219 H 83.3594 v 95.683 H 126.598 V 1018.13 H 83.3594 V 955.141 H 0 V 1113.13 H 367.691 V 955.141 h -83.707 v 62.989 H 240.746 V 746.902" stroke-linecap="round" />
</g>
		<g transform="matrix(0.13 0 0 -0.13 -291.53 -36.49)" id="path34"  >
<path style="stroke: none; stroke-width: 1; stroke-dasharray: none; stroke-linecap: butt; stroke-dashoffset: 0; stroke-linejoin: miter; stroke-miterlimit: 4; fill: rgb(37,74,165); fill-rule: evenodd; opacity: 1;"  transform=" translate(-569.01, -830.2)" d="m 489.797 865.652 h 159.805 l -2.079 7.227 l -2.765 6.539 l -2.766 6.195 l -3.461 5.852 l -3.804 5.508 l -4.149 4.82 l -4.5 4.477 l -4.844 4.125 l -5.531 3.789 l -5.535 3.097 l -5.879 2.754 l -6.574 2.063 l -6.57 1.726 l -6.922 1.028 l -7.258 0.691 l -7.613 0.34 l -7.266 -0.34 l -6.566 -0.691 l -6.579 -1.028 l -6.566 -1.726 l -5.887 -2.407 l -5.879 -2.753 l -5.535 -3.098 l -5.531 -3.785 l -5.191 -4.133 l -4.497 -4.473 l -4.492 -4.82 l -3.808 -5.508 l -3.457 -5.848 l -3.118 -6.195 l -2.769 -6.539 z m 256.308 -108.422 l -3.113 -6.539 l -3.113 -6.543 l -3.457 -6.187 l -3.461 -6.199 l -3.805 -6.196 l -3.804 -5.507 l -4.149 -5.508 l -4.5 -5.508 l -4.496 -5.16 l -4.496 -5.164 l -4.844 -4.477 l -5.187 -4.82 l -5.188 -4.473 l -5.187 -4.129 l -5.535 -4.132 l -5.879 -3.782 l -5.887 -3.785 l -5.879 -3.441 l -6.223 -3.102 l -6.226 -2.754 l -6.227 -2.754 l -6.57 -2.406 l -6.227 -2.414 l -6.918 -2.059 l -6.574 -1.726 l -6.918 -1.375 l -6.918 -1.379 l -6.922 -1.027 l -7.257 -1.036 l -7.266 -0.343 l -7.262 -0.344 l -7.265 -0.344 l -10.375 0.344 l -10.036 0.687 l -9.683 1.036 l -9.688 1.375 l -9.336 2.066 l -8.992 2.066 l -8.648 2.747 l -8.649 3.101 l -8.3 3.441 l -7.957 4.133 l -7.958 4.473 l -7.609 4.82 l -7.609 5.16 l -7.606 5.856 l -6.926 6.191 l -7.261 6.543 l -6.571 6.879 l -5.878 6.887 l -5.883 7.23 l -5.188 7.567 l -5.191 7.574 l -4.496 7.914 l -4.149 7.922 l -3.457 8.262 l -3.457 8.601 l -2.769 8.606 l -2.422 8.949 l -1.731 8.949 l -1.726 9.293 l -1.039 9.293 l -0.692 9.637 v 9.64 v 9.633 l 0.692 9.637 l 1.379 9.293 l 1.386 9.297 l 2.078 8.945 l 2.422 8.949 l 2.762 8.606 l 3.117 8.609 l 3.801 8.262 l 4.152 8.254 l 4.496 7.922 l 4.844 7.57 l 5.531 7.57 l 5.54 6.887 l 6.226 7.227 l 6.223 6.543 l 6.922 6.535 l 7.265 5.851 l 7.258 5.508 l 7.957 5.508 l 7.609 4.82 l 8.301 4.473 l 8.305 4.129 l 8.992 3.783 l 8.649 3.1 l 8.992 3.1 l 8.996 2.41 l 9.34 1.72 l 9.336 1.72 l 9.339 1.03 l 9.684 0.69 l 9.688 0.35 l 12.105 -0.35 l 12.109 -1.03 l 5.879 -1.03 l 5.535 -0.69 l 5.879 -1.38 l 5.879 -1.03 l 5.532 -1.38 l 5.539 -1.72 l 5.879 -1.72 l 5.191 -2.07 l 5.531 -2.06 l 5.535 -2.41 l 5.188 -2.408 l 5.535 -2.754 l 5.191 -2.754 l 4.844 -3.098 l 5.188 -3.101 l 4.843 -3.094 l 4.844 -3.441 l 4.496 -3.446 l 4.496 -3.441 l 4.145 -3.785 l 4.5 -3.782 l 4.148 -4.136 l 3.809 -4.125 l 3.805 -4.481 l 3.804 -4.472 l 3.805 -4.477 l 3.461 -4.812 l 3.109 -4.821 l 3.805 -5.508 l 3.461 -5.851 l 3.457 -5.852 l 3.113 -6.191 l 2.426 -5.856 l 2.766 -6.539 l 2.07 -6.195 l 2.074 -6.539 l 1.735 -6.543 l 1.73 -6.539 l 1.035 -6.883 l 1.039 -6.887 l 1.039 -7.226 l 0.344 -7.227 l 0.344 -7.23 l 0.347 -7.567 v -2.066 v -2.414 l -0.347 -2.406 v -2.067 v -2.41 v -2.406 l -0.344 -2.41 v -2.754 l -0.344 -2.41 l -0.347 -2.407 l -0.344 -2.754 v -2.753 l -0.348 -2.754 l -0.347 -2.754 l -0.34 -2.754 l -0.352 -2.754 H 492.559 l 1.734 -5.852 l 2.418 -5.507 l 2.426 -5.161 l 3.457 -4.82 l 3.457 -4.82 l 4.148 -4.129 l 4.5 -4.129 l 5.188 -3.785 l 5.535 -3.445 l 5.535 -2.754 l 5.879 -2.754 l 5.879 -2.063 l 6.226 -1.379 l 6.579 -1.027 l 6.914 -0.691 l 6.918 -0.348 h 3.804 l 3.809 0.348 l 3.457 0.343 l 3.457 0.688 l 3.801 0.687 l 3.465 0.688 l 3.113 1.031 l 3.457 1.379 l 3.117 1.035 l 3.457 1.719 l 3.109 1.375 l 3.114 2.066 l 3.117 2.067 l 3.109 2.062 l 3.117 2.414 l 3.114 2.406 h 123.136" stroke-linecap="round" />
</g>
		<g transform="matrix(0.13 0 0 -0.13 -237.91 -36.44)" id="path36"  >
<path style="stroke: none; stroke-width: 1; stroke-dasharray: none; stroke-linecap: butt; stroke-dashoffset: 0; stroke-linejoin: miter; stroke-miterlimit: 4; fill: rgb(37,74,165); fill-rule: evenodd; opacity: 1;"  transform=" translate(-971.12, -829.86)" d="m 1158.77 781.324 l -2.42 -7.918 l -2.42 -7.914 l -2.77 -7.57 l -3.11 -7.574 l -3.12 -6.883 l -3.46 -7.231 l -3.8 -6.539 l -4.15 -6.543 l -4.15 -6.191 l -4.5 -6.195 l -4.84 -5.848 l -4.84 -5.508 l -5.54 -5.168 l -5.19 -5.16 l -5.88 -5.16 l -5.88 -4.481 l -6.23 -4.472 l -6.22 -4.129 l -6.57 -3.785 l -6.58 -3.789 l -6.91 -3.094 l -6.92 -3.102 l -7.26 -2.754 l -7.27 -2.406 l -7.26 -2.066 l -7.61 -2.067 l -7.96 -1.375 l -7.95 -1.379 l -7.964 -1.031 l -8.301 -0.687 l -8.648 -0.344 l -8.301 -0.344 l -10.375 0.344 l -10.031 0.687 l -9.688 1.036 l -9.339 1.375 l -9.336 2.066 l -8.993 2.406 l -8.996 2.754 l -8.648 3.098 l -8.305 3.441 l -8.297 4.129 l -7.957 4.473 l -7.613 4.82 l -7.605 5.168 l -7.266 5.508 l -7.262 6.191 l -6.918 6.543 l -6.574 6.879 l -6.227 6.887 l -5.531 7.23 l -5.535 7.567 l -4.844 7.574 l -4.5 7.914 l -4.148 7.922 l -3.457 8.262 l -3.461 8.601 l -2.766 8.606 l -2.422 8.949 l -1.726 8.949 l -1.735 9.293 l -1.035 9.293 l -0.695 9.637 v 9.64 v 9.633 l 0.695 9.637 l 1.035 9.293 l 1.735 9.297 l 1.726 8.945 l 2.422 8.609 l 2.766 8.606 l 3.113 8.258 l 3.465 8.258 l 4.145 7.921 l 4.496 7.914 l 4.843 7.575 l 5.532 7.574 l 5.882 7.566 l 6.227 7.231 l 6.574 6.887 l 6.571 6.535 l 6.574 5.851 l 6.918 5.508 l 7.261 5.16 l 7.266 5.168 l 7.606 4.129 l 7.613 4.133 l 7.953 3.783 l 7.961 3.1 l 7.953 2.75 l 8.301 2.41 l 8.648 2.07 l 8.301 1.38 l 8.645 1.03 l 8.652 0.68 l 8.992 0.35 l 6.918 -0.35 l 7.262 -0.34 l 6.922 -0.69 l 6.57 -1.37 l 6.574 -1.38 l 6.572 -1.72 l 6.57 -2.07 l 6.23 -2.41 l 5.88 -2.75 l 6.23 -2.75 l 5.53 -3.45 l 5.88 -3.781 l 5.54 -4.133 l 5.19 -4.129 l 5.53 -4.82 l 4.84 -4.82 v 31.663 h 80.94 V 876.664 h -96.5 l -2.77 5.168 l -3.11 4.473 l -3.12 4.472 l -3.46 3.789 l -3.8 3.782 l -3.81 3.445 l -4.15 3.094 l -4.15 2.758 l -4.5 2.75 l -4.49 2.066 l -4.84 1.723 l -5.197 1.379 l -5.191 1.375 l -5.184 0.691 l -5.539 0.687 h -5.879 h -4.496 l -4.496 -0.347 l -4.152 -0.34 l -4.149 -0.691 l -4.152 -1.036 l -4.148 -1.031 l -4.153 -1.375 l -3.808 -1.379 l -3.801 -1.722 l -3.457 -2.059 l -3.805 -2.066 l -3.461 -2.415 l -3.465 -2.406 l -3.109 -2.754 l -3.113 -2.754 l -3.457 -3.101 l -2.766 -3.094 l -2.769 -3.441 l -2.766 -3.446 l -2.422 -3.441 l -2.078 -3.785 l -2.074 -3.442 l -1.727 -4.128 l -1.73 -3.786 l -1.387 -3.789 l -1.383 -4.125 l -1.039 -4.136 l -0.687 -4.473 l -0.696 -4.133 l -0.691 -4.473 l -0.348 -4.476 v -4.813 v -4.48 l 0.348 -4.816 l 0.691 -4.473 l 0.348 -4.133 l 1.035 -4.473 l 1.039 -4.129 l 1.035 -4.132 l 1.735 -4.129 l 1.382 -3.785 l 1.727 -3.789 l 2.078 -3.786 l 2.074 -3.441 l 2.422 -3.441 l 2.422 -3.446 l 2.77 -3.441 l 3.109 -3.094 l 2.77 -3.101 l 3.46 -2.75 l 3.11 -2.754 l 3.457 -2.411 l 3.117 -2.066 l 3.457 -2.066 l 3.809 -2.067 l 3.457 -1.718 l 3.801 -1.375 l 3.808 -1.379 l 4.149 -1.036 l 3.808 -1.027 l 4.149 -0.691 l 4.496 -0.344 l 4.152 -0.344 h 4.496 h 5.192 l 5.531 0.688 l 5.187 0.691 l 5.188 1.027 l 4.846 1.727 l 4.85 1.719 l 4.49 2.062 l 4.5 2.414 l 4.49 2.754 l 3.81 2.754 l 3.81 3.442 l 3.45 3.437 l 3.46 3.789 l 3.12 4.133 l 2.76 4.473 l 2.43 4.472 h 116.91" stroke-linecap="round" />
</g>
		<g transform="matrix(0.13 0 0 -0.13 -183.01 -43.42)" id="path38"  >
<path style="stroke: none; stroke-width: 1; stroke-dasharray: none; stroke-linecap: butt; stroke-dashoffset: 0; stroke-linejoin: miter; stroke-miterlimit: 4; fill: rgb(37,74,165); fill-rule: evenodd; opacity: 1;"  transform=" translate(-1382.91, -882.17)" d="m 1221.38 745.531 v 273.979 h -43.59 v 93.62 h 144.25 V 965.816 l 4.49 5.848 l 4.84 5.508 l 4.85 5.164 l 5.19 4.469 l 5.53 4.48 l 5.53 3.781 l 5.88 3.786 l 6.23 3.098 l 6.23 2.76 l 6.57 2.4 l 6.57 2.07 l 6.92 1.72 l 7.26 1.38 l 7.61 0.69 l 7.61 0.69 l 7.96 0.34 l 7.26 -0.34 l 7.27 -0.35 l 6.57 -0.69 l 6.92 -1.03 l 6.22 -1.04 l 6.23 -1.71 l 6.22 -1.73 l 5.89 -2.06 l 5.53 -2.41 l 5.19 -2.41 l 5.19 -3.097 l 5.19 -3.094 l 4.84 -3.445 l 4.49 -3.789 l 4.16 -3.782 l 4.15 -4.472 l 3.8 -4.481 l 3.8 -4.816 l 3.47 -4.816 l 3.11 -5.165 l 2.77 -5.507 l 2.76 -5.852 l 2.07 -5.848 l 2.43 -6.199 l 1.73 -6.535 l 1.73 -6.543 l 1.38 -7.226 l 1.04 -6.887 l 0.69 -7.574 l 0.69 -7.567 l 0.35 -7.922 l 0.35 -8.261 V 745.531 h 45.3 v -94.312 h -149.42 v 196.191 v 9.637 l -0.69 8.949 l -1.04 8.262 l -1.39 7.574 l -1.72 6.535 l -2.43 6.199 l -1.03 2.754 l -1.39 2.407 l -1.73 2.41 l -1.38 2.066 l -1.73 2.067 l -1.73 2.066 l -2.08 1.719 l -2.07 1.718 l -2.08 1.375 l -2.41 1.379 l -2.43 1.036 l -2.76 1.375 l -5.54 1.718 l -6.23 1.379 l -6.91 0.688 l -7.27 0.347 l -6.92 -0.347 l -6.57 -1.032 l -3.45 -0.687 l -2.77 -0.688 l -3.12 -1.035 l -3.11 -1.379 l -2.77 -1.375 l -2.77 -1.379 l -2.42 -1.375 l -2.41 -2.062 l -2.77 -1.723 l -2.08 -2.066 l -2.42 -2.406 l -2.08 -2.414 l -2.07 -2.407 l -2.08 -2.754 l -1.73 -2.753 l -1.73 -2.754 l -2.77 -6.196 l -2.41 -6.539 l -2.08 -6.883 l -1.04 -7.226 l -1.03 -7.922 V 847.41 V 745.531 h 40.81 v -94.312 h -187.13 v 94.312 h 45.66" stroke-linecap="round" />
</g>
		<g transform="matrix(0.13 0 0 -0.13 -122.31 -36.81)" id="path40"  >
<path style="stroke: none; stroke-width: 1; stroke-dasharray: none; stroke-linecap: butt; stroke-dashoffset: 0; stroke-linejoin: miter; stroke-miterlimit: 4; fill: rgb(37,74,165); fill-rule: evenodd; opacity: 1;"  transform=" translate(-1838.12, -832.61)" d="m 1676.58 745.531 v 168.653 h -43.93 v 93.616 h 139.75 v -47.152 l 4.49 6.54 l 4.84 5.855 l 5.19 5.848 l 5.19 5.168 l 5.54 4.812 l 5.88 4.477 l 5.87 3.785 l 6.23 3.437 l 6.58 3.1 l 6.92 2.76 l 6.91 2.41 l 7.27 1.71 l 7.61 1.38 l 7.95 1.04 l 8.3 0.69 l 8.31 0.34 l 7.6 -0.34 l 6.92 -0.35 l 6.92 -0.69 l 6.92 -1.03 l 6.22 -1.04 l 6.58 -1.71 l 5.88 -1.73 l 5.88 -2.06 l 5.53 -2.41 l 5.54 -2.753 l 5.18 -2.754 l 4.85 -3.094 l 4.84 -3.445 l 4.5 -3.789 l 4.5 -4.129 l 4.14 -4.125 l 3.81 -4.481 l 3.8 -4.816 l 3.12 -5.164 l 3.46 -5.16 l 2.76 -5.508 l 2.77 -5.856 l 2.08 -5.847 l 2.42 -6.196 l 1.72 -6.539 l 1.74 -6.539 l 1.38 -6.882 l 1.04 -7.227 l 1.03 -7.234 l 0.35 -7.567 l 0.69 -7.922 v -8.261 v -131.821 h 45.66 V 651.219 H 1895.88 V 847.41 l -0.34 9.637 l -0.69 8.949 l -1.04 8.262 l -1.39 7.574 l -1.73 6.535 l -2.41 6.199 l -1.04 2.754 l -1.39 2.407 l -1.38 2.41 l -1.73 2.066 l -1.73 2.067 l -1.73 2.066 l -2.08 1.719 l -2.07 1.718 l -2.08 1.375 l -2.42 1.379 l -2.42 1.036 l -2.77 1.375 l -5.53 1.718 l -6.23 1.379 l -6.92 0.688 l -7.26 0.347 l -6.92 -0.347 l -6.57 -1.032 l -3.11 -0.687 l -3.12 -0.688 l -3.1 -1.035 l -2.78 -1.379 l -2.76 -1.375 l -2.77 -1.379 l -2.77 -1.375 l -2.42 -2.062 l -2.42 -1.723 l -2.42 -2.066 l -2.43 -2.406 l -2.07 -2.414 l -2.07 -2.407 l -1.74 -2.754 l -2.07 -2.753 l -1.38 -2.754 l -3.11 -6.196 l -2.43 -6.539 l -1.72 -6.883 l -1.39 -7.226 l -0.69 -7.922 l -0.35 -8.258 V 745.531 h 41.17 v -94.312 h -187.14 v 94.312 h 45.66" stroke-linecap="round" />
</g>
		<g transform="matrix(0.13 0 0 -0.13 -77.14 -43.42)" id="path42"  >
<path style="stroke: none; stroke-width: 1; stroke-dasharray: none; stroke-linecap: butt; stroke-dashoffset: 0; stroke-linejoin: miter; stroke-miterlimit: 4; fill: rgb(37,74,165); fill-rule: evenodd; opacity: 1;"  transform=" translate(-2176.93, -882.17)" d="m 2126.25 745.531 v 168.653 h -43.58 v 93.616 h 144.59 V 745.531 h 45.31 v -94.312 h -191.28 v 94.312 z m 0 281.889 v 85.71 h 101.01 v -85.71 h -101.01" stroke-linecap="round" />
</g>
		<g transform="matrix(0.13 0 0 -0.13 -40.36 -36.42)" id="path44"  >
<path style="stroke: none; stroke-width: 1; stroke-dasharray: none; stroke-linecap: butt; stroke-dashoffset: 0; stroke-linejoin: miter; stroke-miterlimit: 4; fill: rgb(37,74,165); fill-rule: evenodd; opacity: 1;"  transform=" translate(-2452.78, -829.69)" d="m 2308.89 761.02 h 96.51 l 0.68 -4.821 l 0.35 -4.129 l 1.04 -4.132 l 1.38 -3.79 l 1.38 -3.441 l 2.08 -3.094 l 2.08 -3.097 l 2.42 -2.411 l 2.77 -2.41 l 3.11 -2.062 l 3.11 -1.719 l 3.8 -1.379 l 3.81 -1.035 l 4.15 -1.031 l 4.5 -0.344 h 4.5 h 4.49 l 4.16 0.344 l 4.14 0.683 l 3.46 1.036 l 3.46 1.031 l 3.11 1.379 l 2.77 1.722 l 2.77 1.719 l 2.08 2.066 l 2.07 2.411 l 1.73 2.754 l 1.38 2.753 l 1.04 3.098 l 0.69 3.094 l 0.35 3.441 l 0.34 3.789 l -0.34 2.754 l -0.35 2.41 l -1.03 2.754 l -1.39 2.407 l -1.73 2.41 l -2.07 2.066 l -2.43 2.406 l -2.76 2.067 l -3.12 2.066 l -3.8 1.723 l -3.81 2.066 l -4.14 1.719 l -4.85 1.719 l -5.19 1.722 l -5.19 1.379 l -5.88 1.375 l -4.84 1.379 l -4.15 1.028 l -4.15 1.035 l -3.8 1.031 l -3.47 0.687 l -3.45 1.036 l -3.12 0.691 l -2.76 1.027 l -12.11 3.789 l -11.41 4.129 l -5.54 2.063 l -5.19 2.414 l -4.84 2.406 l -4.84 2.414 l -4.5 2.754 l -4.5 2.746 l -4.14 2.754 l -3.81 2.758 l -3.81 3.098 l -3.46 3.097 l -3.45 3.098 l -3.12 3.445 l -2.76 3.438 l -2.77 3.441 l -2.42 3.789 l -2.43 3.785 l -2.07 3.782 l -2.08 4.132 l -1.72 4.129 l -1.74 4.133 l -1.38 4.477 l -1.03 4.472 l -1.04 4.821 l -0.69 4.82 l -0.7 4.812 l -0.69 4.821 l -0.35 5.164 v 5.504 l 0.35 6.203 l 0.35 5.848 l 0.69 5.851 l 0.69 5.852 l 1.39 5.504 l 1.38 5.507 l 1.73 5.508 l 2.08 5.168 l 2.07 4.813 l 2.76 4.82 l 2.77 4.82 l 3.11 4.473 l 3.12 4.476 l 3.8 4.129 l 3.81 4.133 l 4.15 4.125 l 4.15 3.789 l 4.5 3.442 l 4.84 3.097 l 4.85 3.102 l 4.84 2.753 l 5.18 2.75 l 5.54 2.06 l 5.53 2.07 l 5.54 2.07 l 5.88 1.37 l 6.23 1.38 l 6.22 1.04 l 6.23 1.03 l 6.57 0.34 l 6.91 0.34 l 6.58 0.35 l 5.53 -0.35 h 5.54 l 5.19 -0.68 l 5.18 -0.35 l 4.85 -0.68 l 4.84 -1.04 l 4.5 -1.03 l 4.49 -1.38 l 4.5 -1.38 l 4.15 -1.72 l 4.5 -1.72 l 4.15 -2.41 l 4.15 -2.06 l 4.15 -2.413 l 4.15 -2.754 l 3.8 -3.094 v 15.141 h 74.72 V 907.988 h -94.78 l -0.69 4.129 l -1.04 3.785 l -1.03 3.789 l -1.04 3.098 l -1.39 3.094 l -1.73 2.414 l -1.72 2.41 l -1.74 2.063 l -2.07 1.722 l -2.07 1.375 l -2.78 1.379 l -2.41 1.031 l -3.12 1.036 l -3.11 0.339 l -3.45 0.348 l -3.47 0.34 l -3.81 -0.34 l -3.45 -0.348 l -3.46 -0.339 l -3.11 -1.036 l -3.11 -1.031 l -2.77 -1.379 l -2.77 -1.375 l -2.42 -1.722 l -2.08 -2.063 l -2.07 -2.066 l -1.39 -2.071 l -1.38 -2.406 l -1.04 -2.406 l -0.69 -2.414 l -0.34 -2.754 l -0.35 -3.094 l 0.35 -3.441 l 0.34 -3.446 l 0.69 -3.093 l 1.38 -3.102 l 1.39 -2.754 l 1.73 -2.754 l 2.07 -2.406 l 2.77 -2.066 l 3.12 -2.067 l 3.8 -2.062 l 4.84 -2.41 l 6.23 -2.063 l 6.57 -2.414 l 7.95 -2.406 l 8.65 -2.407 l 9.69 -2.414 l 15.91 -4.472 l 14.87 -4.821 l 6.92 -2.41 l 6.57 -2.406 l 6.23 -2.754 l 5.88 -2.406 l 5.54 -2.762 l 5.19 -2.75 l 5.18 -2.754 l 4.5 -2.754 l 4.5 -3.097 l 3.8 -2.754 l 3.8 -3.098 l 3.11 -3.094 l 3.12 -3.101 l 2.77 -3.442 l 2.77 -3.445 l 2.41 -3.781 l 2.43 -3.785 l 1.73 -4.133 l 2.07 -4.129 l 1.73 -4.477 l 1.38 -4.472 l 1.39 -4.473 l 1.04 -4.82 l 0.69 -5.16 l 0.69 -5.168 l 0.69 -5.16 l 0.35 -5.508 v -5.508 l -0.35 -6.539 l -0.34 -6.195 l -0.7 -6.196 l -1.03 -5.851 l -1.04 -5.856 l -1.73 -5.847 l -1.73 -5.508 l -2.42 -5.16 l -2.42 -5.508 l -2.43 -4.821 l -3.11 -5.16 l -3.11 -4.48 l -3.81 -4.817 l -3.8 -4.472 l -4.15 -4.133 l -4.15 -4.129 l -4.84 -4.133 l -4.85 -3.437 l -4.84 -3.442 l -5.19 -3.101 l -5.53 -3.094 l -5.19 -2.754 l -5.88 -2.414 l -5.88 -2.059 l -5.88 -1.726 l -6.23 -1.723 l -6.23 -1.375 l -6.56 -1.375 l -6.58 -0.687 l -6.92 -0.688 l -6.91 -0.347 h -7.27 h -5.88 l -5.54 0.347 l -5.53 0.344 l -5.53 0.687 l -5.19 1.036 l -5.19 1.375 l -5.19 1.031 l -4.84 1.719 l -4.84 1.722 l -4.5 2.067 l -4.84 2.066 l -4.5 2.754 l -4.49 2.406 l -4.16 3.102 l -4.49 3.094 l -4.15 3.441 v -18.242 h -78.52 V 761.02" stroke-linecap="round" />
</g>
		<g transform="matrix(0.13 0 0 -0.13 7.95 -36.44)" id="path46"  >
<path style="stroke: none; stroke-width: 1; stroke-dasharray: none; stroke-linecap: butt; stroke-dashoffset: 0; stroke-linejoin: miter; stroke-miterlimit: 4; fill: rgb(37,74,165); fill-rule: evenodd; opacity: 1;"  transform=" translate(-2815.11, -829.86)" d="m 3002.76 781.324 l -2.41 -7.918 l -2.43 -7.914 l -2.77 -7.57 l -3.11 -7.574 l -3.11 -6.883 l -3.81 -7.231 l -3.46 -6.539 l -4.15 -6.543 l -4.15 -6.191 l -4.5 -6.195 l -4.84 -5.848 l -4.84 -5.508 l -5.53 -5.168 l -5.2 -5.16 l -5.88 -5.16 l -5.88 -4.481 l -6.23 -4.472 l -6.22 -4.129 l -6.57 -3.785 l -6.57 -3.789 l -6.92 -3.094 l -6.92 -3.102 l -7.26 -2.754 l -7.26 -2.406 l -7.27 -2.066 l -7.61 -2.067 l -7.95 -1.375 l -7.96 -1.379 l -7.96 -1.031 l -8.29 -0.687 l -8.65 -0.344 l -8.3 -0.344 l -10.39 0.344 l -10.02 0.687 l -9.69 1.036 l -9.34 1.375 l -9.33 2.066 l -9 2.406 l -8.99 2.754 l -8.65 3.098 l -8.31 3.441 l -8.3 4.129 l -7.96 4.473 l -7.94 4.82 l -7.27 5.168 l -7.27 5.508 l -7.26 6.191 l -6.92 6.543 l -6.57 6.879 l -6.23 6.887 l -5.53 7.23 l -5.53 7.567 l -4.85 7.574 l -4.5 7.914 l -4.14 7.922 l -3.47 8.262 l -3.45 8.601 l -2.77 8.606 l -2.42 8.949 l -1.73 8.949 l -1.73 9.293 l -1.04 9.293 l -0.69 9.637 v 9.64 v 9.633 l 0.69 9.637 l 1.04 9.293 l 1.73 9.297 l 1.73 8.945 l 2.42 8.609 l 2.77 8.606 l 3.11 8.258 l 3.46 8.258 l 4.15 7.921 l 4.5 7.914 l 4.84 7.575 l 5.53 7.574 l 5.88 7.566 l 6.23 7.231 l 6.57 6.887 l 6.58 6.535 l 6.57 5.851 l 6.91 5.508 l 7.27 5.16 l 7.26 5.168 l 7.27 4.129 l 7.96 4.133 l 7.95 3.783 l 7.96 3.1 l 7.96 2.75 l 8.3 2.41 l 8.64 2.07 l 8.3 1.38 l 8.64 1.03 l 8.66 0.68 l 8.99 0.35 l 6.91 -0.35 l 7.27 -0.34 l 6.91 -0.69 l 6.58 -1.37 l 6.58 -1.38 l 6.57 -1.72 l 6.57 -2.07 l 6.22 -2.41 l 5.88 -2.75 l 6.23 -2.75 l 5.54 -3.45 l 5.88 -3.781 l 5.53 -4.133 l 5.19 -4.129 l 5.19 -4.82 l 5.18 -4.82 v 31.663 h 80.95 V 876.664 H 2890 l -2.77 5.168 l -3.11 4.473 l -3.11 4.472 l -3.47 3.789 l -3.79 3.782 l -3.81 3.445 l -4.15 3.094 l -4.15 2.758 l -4.5 2.75 l -4.85 2.066 l -4.49 1.723 l -5.19 1.379 l -5.19 1.375 l -5.19 0.691 l -5.88 0.687 h -5.52 h -4.51 l -4.49 -0.347 l -4.16 -0.34 l -4.14 -0.691 l -4.16 -1.036 l -4.15 -1.031 l -4.15 -1.375 l -3.8 -1.379 l -3.81 -1.722 l -3.46 -2.059 l -3.8 -2.066 l -3.46 -2.415 l -3.46 -2.406 l -3.11 -2.754 l -3.46 -2.754 l -3.11 -3.101 l -2.78 -3.094 l -2.76 -3.441 l -2.77 -3.446 l -2.42 -3.441 l -2.07 -3.785 l -2.08 -3.442 l -1.73 -4.128 l -1.73 -3.786 l -1.38 -3.789 l -1.39 -4.125 l -1.03 -4.136 l -0.7 -4.473 l -0.69 -4.133 l -0.68 -4.473 l -0.36 -4.476 v -4.813 v -4.48 l 0.36 -4.816 l 0.34 -4.473 l 0.69 -4.133 l 1.04 -4.473 l 1.03 -4.129 l 1.05 -4.132 l 1.37 -4.129 l 1.73 -3.785 l 1.73 -3.789 l 2.08 -3.786 l 2.08 -3.441 l 2.41 -3.441 l 2.42 -3.446 l 2.78 -3.441 l 3.11 -3.094 l 2.77 -3.101 l 3.11 -2.75 l 3.46 -2.754 l 3.11 -2.411 l 3.46 -2.066 l 3.46 -2.066 l 3.81 -2.067 l 3.45 -1.718 l 3.8 -1.375 l 3.81 -1.379 l 4.15 -1.036 l 3.81 -1.027 l 4.15 -0.691 l 4.15 -0.344 l 4.49 -0.344 h 4.51 h 5.18 l 5.54 0.688 l 5.18 0.691 l 5.2 1.027 l 4.84 1.727 l 4.84 1.719 l 4.5 2.062 l 4.49 2.414 l 4.15 2.754 l 4.15 2.754 l 3.81 3.442 l 3.46 3.437 l 3.45 3.789 l 3.12 4.133 l 2.77 4.473 l 2.41 4.472 h 116.92" stroke-linecap="round" />
</g>
		<g transform="matrix(0.13 0 0 -0.13 62.03 -43.42)" id="path48"  >
<path style="stroke: none; stroke-width: 1; stroke-dasharray: none; stroke-linecap: butt; stroke-dashoffset: 0; stroke-linejoin: miter; stroke-miterlimit: 4; fill: rgb(37,74,165); fill-rule: evenodd; opacity: 1;"  transform=" translate(-3220.68, -882.17)" d="m 3058.79 745.531 v 273.979 h -43.57 v 93.62 h 144.24 V 965.816 l 4.49 5.848 l 4.84 5.508 l 4.85 5.164 l 5.18 4.469 l 5.54 4.48 l 5.54 3.781 l 5.88 3.786 l 6.22 3.098 l 6.23 2.76 l 6.57 2.4 l 6.57 2.07 l 7.27 1.72 l 6.91 1.38 l 7.61 0.69 l 7.62 0.69 l 7.95 0.34 l 7.26 -0.34 l 7.27 -0.35 l 6.91 -0.69 l 6.58 -1.03 l 6.22 -1.04 l 6.23 -1.71 l 6.22 -1.73 l 5.88 -2.06 l 5.54 -2.41 l 5.54 -2.41 l 5.18 -3.097 l 4.85 -3.094 l 4.84 -3.445 l 4.49 -3.789 l 4.15 -3.782 l 4.16 -4.472 l 3.8 -4.481 l 3.8 -4.816 l 3.47 -4.816 l 3.11 -5.165 l 2.77 -5.507 l 2.76 -5.852 l 2.08 -5.848 l 2.42 -6.199 l 1.73 -6.535 l 1.73 -6.543 l 1.39 -7.226 l 1.03 -6.887 l 0.7 -7.574 l 0.68 -7.567 l 0.35 -7.922 l 0.35 -8.261 V 745.531 h 45.66 V 651.219 H 3278.1 v 196.191 v 9.637 l -0.69 8.949 l -1.04 8.262 l -1.38 7.574 l -1.73 6.535 l -2.42 6.199 l -1.04 2.754 l -1.39 2.407 l -1.73 2.41 l -1.38 2.066 l -1.73 2.067 l -1.73 2.066 l -2.07 1.719 l -2.08 1.718 l -2.08 1.375 l -2.41 1.379 l -2.42 1.036 l -2.77 1.375 l -5.53 1.718 l -6.23 1.379 l -6.92 0.688 l -7.26 0.347 l -6.92 -0.347 l -6.58 -1.032 l -3.11 -0.687 l -3.11 -0.688 l -3.12 -1.035 l -2.76 -1.379 l -3.12 -1.375 l -2.42 -1.379 l -2.76 -1.375 l -2.42 -2.062 l -2.42 -1.723 l -2.43 -2.066 l -2.42 -2.406 l -2.07 -2.414 l -2.08 -2.407 l -2.08 -2.754 l -1.73 -2.753 l -1.73 -2.754 l -2.76 -6.196 l -2.42 -6.539 l -1.73 -6.883 l -1.39 -7.226 l -1.03 -7.922 V 847.41 V 745.531 h 41.16 v -94.312 h -187.14 v 94.312 h 45.31" stroke-linecap="round" />
</g>
		<g transform="matrix(0.13 0 0 -0.13 116.64 -36.49)" id="path50"  >
<path style="stroke: none; stroke-width: 1; stroke-dasharray: none; stroke-linecap: butt; stroke-dashoffset: 0; stroke-linejoin: miter; stroke-miterlimit: 4; fill: rgb(37,74,165); fill-rule: evenodd; opacity: 1;"  transform=" translate(-3630.23, -830.2)" d="m 3551.36 865.652 h 159.47 l -2.08 7.227 l -2.43 6.539 l -3.11 6.195 l -3.12 5.852 l -3.8 5.508 l -4.15 4.82 l -4.84 4.477 l -4.84 4.125 l -5.19 3.789 l -5.88 3.097 l -5.88 2.754 l -6.23 2.063 l -6.92 1.726 l -6.92 1.028 l -7.26 0.691 l -7.61 0.34 l -6.91 -0.34 l -6.93 -0.691 l -6.57 -1.028 l -6.22 -1.726 l -6.23 -2.407 l -5.88 -2.753 l -5.54 -3.098 l -5.53 -3.785 l -4.84 -4.133 l -4.84 -4.473 l -4.15 -4.82 l -4.15 -5.508 l -3.46 -5.848 l -3.11 -6.195 l -2.43 -6.539 z m 255.97 -108.422 l -2.77 -6.539 l -3.46 -6.543 l -3.46 -6.187 l -3.46 -6.199 l -3.8 -6.196 l -3.8 -5.507 l -4.15 -5.508 l -4.16 -5.508 l -4.5 -5.16 l -4.84 -5.164 l -4.84 -4.477 l -4.84 -4.82 l -5.19 -4.473 l -5.54 -4.129 l -5.53 -4.132 l -5.89 -3.782 l -5.87 -3.785 l -5.88 -3.441 l -6.22 -3.102 l -6.23 -2.754 l -6.24 -2.754 l -6.22 -2.406 l -6.57 -2.414 l -6.57 -2.059 l -6.91 -1.726 l -6.59 -1.375 l -6.91 -1.379 l -7.27 -1.027 l -6.91 -1.036 l -7.27 -0.343 l -7.26 -0.344 l -7.61 -0.344 l -10.38 0.344 l -10.03 0.687 l -9.68 1.036 l -9.68 1.375 l -9 2.066 l -9.34 2.066 l -8.65 2.747 l -8.64 3.101 l -7.96 3.441 l -8.3 4.133 l -7.96 4.473 l -7.61 4.82 l -7.61 5.16 l -7.26 5.856 l -7.26 6.191 l -6.93 6.543 l -6.56 6.879 l -6.23 6.887 l -5.88 7.23 l -5.19 7.567 l -4.84 7.574 l -4.5 7.914 l -4.15 7.922 l -3.81 8.262 l -3.11 8.601 l -2.77 8.606 l -2.41 8.949 l -2.08 8.949 l -1.39 9.293 l -1.03 9.293 l -0.7 9.637 l -0.34 9.64 l 0.34 9.633 l 0.7 9.637 l 1.03 9.293 l 1.39 9.297 l 2.08 8.945 l 2.41 8.949 l 2.77 8.606 l 3.46 8.609 l 3.46 8.262 l 4.15 8.254 l 4.5 7.922 l 5.19 7.57 l 5.18 7.57 l 5.54 6.887 l 6.23 7.227 l 6.56 6.543 l 6.93 6.535 l 6.92 5.851 l 7.6 5.508 l 7.61 5.508 l 7.96 4.82 l 7.95 4.473 l 8.66 4.129 l 8.64 3.783 l 8.99 3.1 l 8.65 3.1 l 9.34 2.41 l 8.99 1.72 l 9.34 1.72 l 9.69 1.03 l 9.33 0.69 l 9.69 0.35 l 12.11 -0.35 l 12.11 -1.03 l 5.88 -1.03 l 5.88 -0.69 l 5.53 -1.38 l 5.88 -1.03 l 5.53 -1.38 l 5.88 -1.72 l 5.54 -1.72 l 5.53 -2.07 l 5.54 -2.06 l 5.19 -2.41 l 5.53 -2.408 l 5.19 -2.754 l 5.19 -2.754 l 5.19 -3.098 l 4.83 -3.101 l 4.85 -3.094 l 4.84 -3.441 l 4.49 -3.446 l 4.51 -3.441 l 4.49 -3.785 l 4.16 -3.782 l 4.15 -4.136 l 3.8 -4.125 l 4.15 -4.481 l 3.46 -4.472 l 3.8 -4.477 l 3.46 -4.812 l 3.47 -4.821 l 3.8 -5.508 l 3.46 -5.851 l 3.11 -5.852 l 3.11 -6.191 l 2.78 -5.856 l 2.41 -6.539 l 2.42 -6.195 l 1.73 -6.539 l 1.74 -6.543 l 1.72 -6.539 l 1.38 -6.883 l 1.04 -6.887 l 0.69 -7.226 l 0.7 -7.227 l 0.35 -7.23 v -7.567 v -2.066 v -2.414 v -2.406 v -2.067 l -0.35 -2.41 v -2.406 l -0.35 -2.41 v -2.754 l -0.35 -2.41 v -2.407 l -0.34 -2.754 l -0.35 -2.753 l -0.34 -2.754 l -0.34 -2.754 l -0.36 -2.754 l -0.34 -2.754 h -264.27 l 1.73 -5.852 l 2.42 -5.507 l 2.77 -5.161 l 3.11 -4.82 l 3.81 -4.82 l 4.15 -4.129 l 4.49 -4.129 l 4.85 -3.785 l 5.54 -3.445 l 5.53 -2.754 l 5.88 -2.754 l 5.88 -2.063 l 6.57 -1.379 l 6.22 -1.027 l 6.93 -0.691 l 6.91 -0.348 h 3.81 l 3.8 0.348 l 3.47 0.343 l 3.79 0.688 l 3.46 0.687 l 3.46 0.688 l 3.46 1.031 l 3.11 1.379 l 3.47 1.035 l 3.11 1.719 l 3.11 1.375 l 3.11 2.066 l 3.12 2.067 l 3.11 2.062 l 3.12 2.414 l 3.1 2.406 h 123.15" stroke-linecap="round" />
</g>
		<g transform="matrix(0.13 0 0 -0.13 164.69 -36.42)" id="path52"  >
<path style="stroke: none; stroke-width: 1; stroke-dasharray: none; stroke-linecap: butt; stroke-dashoffset: 0; stroke-linejoin: miter; stroke-miterlimit: 4; fill: rgb(37,74,165); fill-rule: evenodd; opacity: 1;"  transform=" translate(-3990.65, -829.69)" d="m 3846.75 761.02 h 96.52 l 0.34 -4.821 l 0.69 -4.129 l 1.04 -4.132 l 1.38 -3.79 l 1.39 -3.441 l 2.08 -3.094 l 2.07 -3.097 l 2.42 -2.411 l 2.77 -2.41 l 3.11 -2.062 l 3.12 -1.719 l 3.45 -1.379 l 4.15 -1.035 l 4.15 -1.031 l 4.51 -0.344 h 4.49 h 4.5 l 4.14 0.344 l 4.15 0.683 l 3.47 1.036 l 3.46 1.031 l 3.11 1.379 l 2.76 1.722 l 2.78 1.719 l 2.07 2.066 l 2.07 2.411 l 1.74 2.754 l 1.37 2.753 l 1.04 3.098 l 0.7 3.094 l 0.34 3.441 l 0.35 3.789 l -0.35 2.754 l -0.69 2.41 l -0.69 2.754 l -1.39 2.407 l -1.73 2.41 l -2.07 2.066 l -2.42 2.406 l -2.77 2.067 l -3.11 2.066 l -3.81 1.723 l -3.81 2.066 l -4.49 1.719 l -4.5 1.719 l -5.19 1.722 l -5.52 1.379 l -5.54 1.375 l -4.84 1.379 l -4.15 1.028 l -4.15 1.035 l -3.81 1.031 l -3.46 0.687 l -3.46 1.036 l -3.11 0.691 l -2.77 1.027 l -12.11 3.789 l -11.41 4.129 l -5.54 2.063 l -5.18 2.414 l -4.85 2.406 l -4.84 2.414 l -4.49 2.754 l -4.51 2.746 l -4.15 2.754 l -3.8 2.758 l -3.8 3.098 l -3.46 3.097 l -3.46 3.098 l -3.11 3.445 l -2.78 3.438 l -2.76 3.441 l -2.42 3.789 l -2.42 3.785 l -2.07 3.782 l -2.08 4.132 l -1.73 4.129 l -1.73 4.133 l -1.39 4.477 l -1.03 4.472 l -1.04 4.821 l -1.04 4.82 l -0.35 4.812 l -0.69 4.821 l -0.34 5.164 v 5.504 l 0.34 6.203 l 0.34 5.848 l 0.7 5.851 l 0.69 5.852 l 1.39 5.504 l 1.38 5.507 l 1.73 5.508 l 2.08 5.168 l 2.07 4.813 l 2.77 4.82 l 2.76 4.82 l 2.77 4.473 l 3.46 4.476 l 3.46 4.129 l 4.15 4.133 l 4.15 4.125 l 4.16 3.789 l 4.49 3.442 l 4.84 3.097 l 4.85 3.102 l 4.83 2.753 l 5.2 2.75 l 5.53 2.06 l 5.53 2.07 l 5.54 2.07 l 5.88 1.37 l 6.23 1.38 l 6.22 1.04 l 6.23 1.03 l 6.57 0.34 l 6.57 0.34 l 6.92 0.35 l 5.53 -0.35 h 5.54 l 5.19 -0.68 l 5.18 -0.35 l 4.85 -0.68 l 4.84 -1.04 l 4.49 -1.03 l 4.5 -1.38 l 4.5 -1.38 l 4.16 -1.72 l 4.49 -1.72 l 4.15 -2.41 l 4.15 -2.06 l 4.15 -2.413 l 4.15 -2.754 l 3.81 -3.094 v 15.141 h 74.71 V 907.988 h -94.78 l -0.69 4.129 l -1.03 3.785 l -1.04 3.789 l -1.04 3.098 l -1.38 3.094 l -1.73 2.414 l -1.73 2.41 l -1.73 2.063 l -2.08 1.722 l -2.07 1.375 l -2.77 1.379 l -2.77 1.031 l -2.76 1.036 l -3.12 0.339 l -3.45 0.348 l -3.81 0.34 l -3.46 -0.34 l -3.46 -0.348 l -3.45 -0.339 l -3.12 -1.036 l -3.11 -1.031 l -2.77 -1.379 l -2.77 -1.375 l -2.42 -1.722 l -2.07 -2.063 l -2.08 -2.066 l -1.39 -2.071 l -1.38 -2.406 l -1.04 -2.406 l -0.69 -2.414 l -0.69 -2.754 v -3.094 l 0.34 -3.441 l 0.35 -3.446 l 0.69 -3.093 l 1.39 -3.102 l 1.38 -2.754 l 1.73 -2.754 l 2.08 -2.406 l 2.76 -2.066 l 2.77 -2.067 l 4.16 -2.062 l 4.83 -2.41 l 5.88 -2.063 l 6.92 -2.414 l 7.95 -2.406 l 8.66 -2.407 l 9.68 -2.414 l 15.91 -4.472 l 14.87 -4.821 l 6.92 -2.41 l 6.57 -2.406 l 6.23 -2.754 l 5.88 -2.406 l 5.54 -2.762 l 5.18 -2.75 l 5.2 -2.754 l 4.49 -2.754 l 4.15 -3.097 l 4.15 -2.754 l 3.8 -3.098 l 3.12 -3.094 l 3.11 -3.101 l 2.76 -3.442 l 2.78 -3.445 l 2.42 -3.781 l 2.08 -3.785 l 2.07 -4.133 l 2.07 -4.129 l 1.74 -4.477 l 1.38 -4.472 l 1.38 -4.473 l 1.04 -4.82 l 0.69 -5.16 l 0.69 -5.168 l 0.7 -5.16 v -5.508 l 0.34 -5.508 l -0.34 -6.539 l -0.35 -6.195 l -0.7 -6.196 l -1.03 -5.851 l -1.39 -5.856 l -1.38 -5.847 l -1.72 -5.508 l -2.43 -5.16 l -2.42 -5.508 l -2.42 -4.821 l -3.12 -5.16 l -3.45 -4.48 l -3.46 -4.817 l -3.81 -4.472 l -4.15 -4.133 l -4.49 -4.129 l -4.5 -4.133 l -4.85 -3.437 l -4.83 -3.442 l -5.2 -3.101 l -5.53 -3.094 l -5.54 -2.754 l -5.53 -2.414 l -5.88 -2.059 l -5.88 -1.726 l -6.23 -1.723 l -6.23 -1.375 l -6.57 -1.375 l -6.56 -0.687 l -6.92 -0.688 l -6.92 -0.347 h -7.26 h -5.88 l -5.54 0.347 l -5.54 0.344 l -5.53 0.687 l -5.19 1.036 l -5.19 1.375 l -5.19 1.031 l -4.83 1.719 l -4.85 1.722 l -4.5 2.067 l -4.83 2.066 l -4.51 2.754 l -4.49 2.406 l -4.16 3.102 l -4.49 3.094 l -4.15 3.441 v -18.242 h -78.53 V 761.02" stroke-linecap="round" />
</g>
		<g transform="matrix(0.13 0 0 -0.13 292.93 0.11)" id="path54"  >
<path style="stroke: none; stroke-width: 1; stroke-dasharray: none; stroke-linecap: butt; stroke-dashoffset: 0; stroke-linejoin: miter; stroke-miterlimit: 4; fill: rgb(37,74,165); fill-rule: nonzero; opacity: 1;"  transform=" translate(-4952.42, -555.71)" d="m 5308.54 540.73 l -1.74 -22.371 l -3.11 -22.714 l -4.5 -22.032 l -5.87 -22.031 l -7.27 -21.68 l -8.65 -21.347 l -10.37 -20.645 l -11.42 -19.961 l -13.14 -19.629 l -14.53 -18.574 l -15.91 -17.891 l -17.3 -16.875 l -19.02 -15.839 l -20.06 -15.137 l -21.8 -13.77 l -64.33 -106.699 l -39.78 65.742 l -9.34 -1.718 l -9.68 -1.719 l -9.69 -1.719 l -9.69 -1.035 l -9.68 -1.035 l -9.69 -0.684 l -9.68 -0.351 h -9.69 h -10.03 l -9.68 0.351 l -9.69 0.684 l -9.69 1.035 l -9.69 1.035 l -9.67 1.719 l -9.69 1.719 l -9.34 1.718 l -39.78 -65.742 l -64.33 106.699 l -21.45 13.77 l -20.4 15.137 l -19.04 15.839 l -17.29 16.875 l -15.91 17.891 l -14.53 18.574 l -13.14 19.629 l -11.42 19.961 l -10.37 20.645 l -8.65 21.347 l -7.27 21.68 l -5.88 22.031 l -4.49 22.032 l -3.11 22.714 l -1.74 22.371 v 22.723 l 1.04 22.715 l 2.77 22.371 l 3.81 22.375 l 5.53 22.024 l 6.92 21.687 l 8.3 21.34 l 9.68 20.652 l 11.07 20.305 l 12.46 19.621 l 14.18 18.59 l 15.22 18.242 l 16.6 16.863 l 18.33 16.18 l 19.38 15.141 l 21.09 14.109 l 22.14 12.738 v 78.821 h 335.17 v -78.821 l 22.49 -12.738 l 20.76 -14.109 l 19.36 -15.141 l 18.34 -16.18 l 16.6 -16.863 l 15.22 -18.242 l 14.19 -18.59 l 12.44 -19.621 l 11.07 -20.305 l 9.69 -20.652 l 8.3 -21.34 l 6.92 -21.687 l 5.53 -22.024 l 3.81 -22.375 l 2.77 -22.371 l 1.38 -22.715 z m 201.65 41.305 l -0.68 13.43 l -1.05 13.074 l -115.18 19.274 l -1.73 10.671 l -2.42 11.02 l -2.42 10.668 l -2.77 10.668 l -3.12 10.328 l -3.11 10.668 l -3.46 10.328 l -3.81 10.32 l 89.95 74.004 l -5.54 12.047 l -5.88 11.703 l -6.23 11.7 l -6.57 11.703 l -6.92 11.359 l -6.91 11.016 l -7.27 11.015 l -7.6 11.012 l -109.31 -40.617 l -7.27 8.609 l -7.26 8.258 l -7.61 7.918 l -7.62 7.918 l -7.95 7.57 l -7.95 7.574 l -8.31 7.227 l -8.65 7.227 l 40.82 108.763 l -10.72 7.58 l -11.42 7.22 l -11.06 6.89 l -11.42 6.88 l -11.75 6.54 l -11.77 6.2 l -11.76 5.85 l -12.11 5.5 l -74.36 -89.486 l -10.38 3.785 l -10.38 3.442 l -10.72 3.101 l -10.38 3.098 l -10.72 2.75 l -10.73 2.41 l -10.72 2.063 l -11.06 2.066 l -19.38 114.621 l -13.14 1.03 l -13.49 0.69 l -13.14 0.69 h -13.15 h -13.48 l -13.15 -0.69 l -13.49 -0.69 l -13.15 -1.03 l -19.37 -114.621 l -10.72 -2.066 l -11.07 -2.063 l -10.72 -2.41 l -10.73 -2.75 l -10.38 -3.098 l -10.71 -3.101 l -10.38 -3.442 l -10.38 -3.785 l -74.37 89.486 l -12.11 -5.5 l -11.75 -5.85 l -11.76 -6.2 l -11.76 -6.54 l -11.43 -6.88 l -11.06 -6.89 l -11.06 -7.22 l -11.08 -7.58 l 40.82 -108.763 l -8.64 -7.227 l -8.31 -7.227 l -7.96 -7.574 l -7.95 -7.57 l -7.61 -7.918 l -7.61 -7.918 l -7.27 -8.258 l -6.91 -8.609 l -109.65 40.617 l -7.61 -11.012 l -7.27 -11.015 l -6.91 -11.016 l -6.92 -11.359 l -6.58 -11.703 l -6.23 -11.7 l -5.88 -11.703 l -5.52 -12.047 l 89.93 -74.004 l -3.81 -10.32 l -3.46 -10.328 l -3.11 -10.668 l -3.11 -10.328 l -2.77 -10.668 l -2.42 -10.668 l -2.07 -11.02 l -2.08 -10.671 l -115.19 -19.274 l -1.03 -13.074 l -0.7 -13.43 l -0.34 -13.074 l -0.35 -13.43 l 0.35 -13.074 l 0.34 -13.082 l 0.7 -13.422 l 1.03 -13.082 l 115.19 -19.277 l 2.08 -11.016 l 2.07 -10.664 l 2.42 -10.664 l 2.77 -10.676 l 3.11 -10.672 l 3.11 -10.332 l 3.46 -10.312 l 3.81 -10.332 l -89.93 -74.004 l 5.52 -12.051 l 5.88 -11.699 l 6.23 -11.699 l 6.58 -11.7 l 6.92 -11.367 l 6.91 -11.015 l 7.27 -11.348 l 7.61 -10.664 l 109.65 40.605 l 6.91 -8.613 l 7.27 -8.242 l 7.61 -7.93 l 7.61 -7.91 l 7.95 -7.578 l 7.96 -7.578 l 8.31 -7.227 l 8.64 -7.226 l -40.82 -108.758 l 11.08 -7.5704 l 11.06 -7.2305 l 11.06 -6.8906 l 11.43 -6.8789 l 11.76 -6.543 l 11.76 -6.1875 l 11.75 -5.8594 l 12.11 -5.5117 l 74.37 89.496 l 10.38 -3.789 l 10.38 -3.437 l 10.71 -3.438 l 10.38 -2.754 l 10.73 -2.754 l 10.72 -2.402 l 11.07 -2.422 l 10.72 -1.719 l 19.37 -114.60912 l 13.15 -1.04297 l 13.49 -0.679691 L 4939.12 0 h 13.48 h 13.15 l 13.14 0.699219 l 13.49 0.679691 l 13.14 1.04297 l 19.38 114.60912 l 11.06 1.719 l 10.72 2.422 l 10.73 2.402 l 10.72 2.754 l 10.38 2.754 l 10.72 3.438 l 10.38 3.437 l 10.38 3.789 l 74.36 -89.496 l 12.11 5.5117 l 11.76 5.8594 l 11.77 6.1875 l 11.75 6.543 l 11.42 6.8789 l 11.06 6.8906 l 11.42 7.2305 l 10.72 7.5704 l -40.82 108.758 l 8.65 7.226 l 8.31 7.227 l 7.95 7.578 l 7.95 7.578 l 7.62 7.91 l 7.61 7.93 l 7.26 8.242 l 7.27 8.613 l 109.31 -40.605 l 7.6 10.664 l 7.27 11.348 l 6.91 11.015 l 6.92 11.367 l 6.57 11.7 l 6.23 11.699 l 5.88 11.699 l 5.54 12.051 l -89.95 74.004 l 3.81 10.332 l 3.46 10.312 l 3.11 10.332 l 3.12 10.672 l 2.77 10.676 l 2.42 10.664 l 2.42 10.664 l 1.73 11.016 l 115.18 19.277 l 1.05 13.082 l 0.68 13.422 l 0.69 13.082 v 13.074 v 13.43 l -0.69 13.074" stroke-linecap="round" />
</g>
		<g transform="matrix(0.13 0 0 -0.13 292.95 -31.62)" id="path56"  >
<path style="stroke: none; stroke-width: 1; stroke-dasharray: none; stroke-linecap: butt; stroke-dashoffset: 0; stroke-linejoin: miter; stroke-miterlimit: 4; fill: rgb(37,74,165); fill-rule: evenodd; opacity: 1;"  transform=" translate(-4952.6, -793.72)" d="M 5104.11 931.391 H 4801.1 v -79.508 h 74.36 v 16.18 h 39.79 V 719.715 h -15.92 v -63.676 h 106.19 v 63.676 h -15.91 v 148.004 h 40.13 v -15.836 h 74.37 v 79.508" stroke-linecap="round" />
</g>
		<g transform="matrix(0.13 0 0 -0.13 292.93 -8.33)" id="path58"  >
<path style="stroke: none; stroke-width: 1; stroke-dasharray: none; stroke-linecap: butt; stroke-dashoffset: 0; stroke-linejoin: miter; stroke-miterlimit: 4; fill: rgb(37,74,165); fill-rule: evenodd; opacity: 1;"  transform=" translate(-4952.43, -619.04)" d="m 4787.6 809.551 v -63.676 h 16.26 V 491.859 l -16.26 0.344 v -63.68 h 106.55 v 63.68 h -15.91 v 63.328 h 148.73 v -63.328 h -15.91 v -63.68 h 106.19 v 63.68 h -15.92 v 254.012 l 15.92 -0.34 v 63.676 h -106.19 v -63.676 h 15.91 V 619.211 h -148.73 v 126.664 h 15.91 v 63.676 H 4787.6" stroke-linecap="round" />
</g>
		<g transform="matrix(0.13 0 0 -0.13 292.93 29.74)" id="path60"  >
<path style="stroke: none; stroke-width: 1; stroke-dasharray: none; stroke-linecap: butt; stroke-dashoffset: 0; stroke-linejoin: miter; stroke-miterlimit: 4; fill: rgb(37,74,165); fill-rule: evenodd; opacity: 1;"  transform=" translate(-4952.43, -333.53)" d="m 4952.6 368.633 l 116.92 -193.77 l 153.23 254.004 h 38.06 v 63.336 h -127.3 v -63.336 h 14.87 l -78.86 -130.781 l -117.27 194.117 l -116.91 -194.117 l -78.52 130.781 h 14.87 v 63.336 h -127.63 v -63.336 h 38.4 l 153.23 -254.004 l 116.91 193.77" stroke-linecap="round" />
</g>
</g>
</g>
</svg>